# xmcd CD database file
#
# Track frame offsets:
#	150
#	3890
#	14928
#	22451
#	33208
#	42188
#	51578
#	64290
#	76418
#	83583
#	95209
#	104507
#	110589
#	126761
#	137014
#	142662
#	156460
#	170711
#	185073
#	202317
#	217518
#	225419
#	235742
#	244007
#	253284
#	262200
#	273127
#	287196
#	297140
#	311771
#	320588
#	330874
#	341064
#	352652
#
# Disc length: 4799 seconds
#
# Revision: 2
# Processed by: cddbd v1.5.2PL0 Copyright (c) Steve Scherf et al.
# Submitted via: CDex 1.70beta2
#
DISCID=0512bd22
DTITLE=99 x Jazz - Stile Orte Instrumente
DYEAR=2007
DGENRE=Jazz
TTITLE0=01 Einleitung (Stan Getz and Gerry Mulligan, I don't know what time it was)
TTITLE1=02 Blues (Goetz Alsmann - B Smith and L Armstrong, St Louis Blues)
TTITLE2=03 Ragtime (Goetz Alsmann)
TTITLE3=04 New Orleans Louis Armstrong and His Hot 5, Gut bucket blues)
TTITLE4=05 Dixieland (Original Dixieland Jazz band, Livery Stable Blues)
TTITLE5=06 Chicago (Goetz Alsmann - Bix Beiderbecke, Singing the blues)
TTITLE6=07 Kansas City (Goetz Alsmann - Letser Young and Kansas City 6, Countless blues)
TTITLE7=08 Swing (Jimmy Lunceford and Orch, Rhythm is our business)
TTITLE8=09 Modern Jazz
TTITLE9=10 Bebop (Bud Powell, All God's chillun got rhythm)
TTITLE10=11 Latin Jazz (Sergio Mendes - Machito and His Afro-Cuban Orch and C Parker, Mango mangue)
TTITLE11=12 Cool Jazz
TTITLE12=13 Hard Bop (Herbie Hancock - Clifford Brown, Dahood)
TTITLE13=14 Third Stream (Lee Konitz, Music for alto saxophone and strings, pt2)
TTITLE14=15 Modaler Jazz
TTITLE15=16 Free Jazz (Joachim Kuehn - Albert Ayler, For John Coltrane)
TTITLE16=17 Soul Jazz (Joe Sample - Jimmy Smith, Bashin')
TTITLE17=18 Bossa Nova (Sergio Mendes - Stan Getz and Joao Gilberto, Corcovado)
TTITLE18=19 Fusion-Jazzrock (Jack DeJohnette - Chick Corea, Hymn of the 7th galaxy)
TTITLE19=20 Europaeischer Jazz (Doldinger, Naura and Baertsch)
TTITLE20=21 Traditional Jazz (Roy Hargrove, Mental phrasing)
TTITLE21=22 Nu Jazz (Bugge Wesseltoft, Poem)
TTITLE22=23 Storyville
TTITLE23=24 Savoy Ballroom (Anita O'Day, Stompin' at the Savoy)
TTITLE24=25 52nd Street
TTITLE25=26 Knitting Factory
TTITLE26=27 Jazz Vocal (Jamie Cullum and Lizz Wright)
TTITLE27=28 Piano (Nik Baertsch and Joachim Kuehn)
TTITLE28=29 Saxophon (Coleman Hawkins, Don't blame me)
TTITLE29=30 Trompete (Til Broenner)
TTITLE30=31 Posaune (Albert Mangelsdorff, For Peter)
TTITLE31=32 Bass (Sonny Rollins, Blue 7)
TTITLE32=33 Schlagzeug (Kenny Baron)
TTITLE33=34 Gitarre (John Scofield)
EXTD=YEAR: 2007
EXTT0=
EXTT1=
EXTT2=
EXTT3=
EXTT4=
EXTT5=
EXTT6=
EXTT7=
EXTT8=
EXTT9=
EXTT10=
EXTT11=
EXTT12=
EXTT13=
EXTT14=
EXTT15=
EXTT16=
EXTT17=
EXTT18=
EXTT19=
EXTT20=
EXTT21=
EXTT22=
EXTT23=
EXTT24=
EXTT25=
EXTT26=
EXTT27=
EXTT28=
EXTT29=
EXTT30=
EXTT31=
EXTT32=
EXTT33=
PLAYORDER=
